<?xml version="1.0" encoding="utf-8"?>
<!-- Generator: Adobe Illustrator 26.0.2, SVG Export Plug-In . SVG Version: 6.00 Build 0)  -->
<svg version="1.1" id="Layer_1" xmlns="http://www.w3.org/2000/svg" xmlns:xlink="http://www.w3.org/1999/xlink" x="0px" y="0px"
	 viewBox="0 0 16.25 14.96" style="enable-background:new 0 0 16.25 14.96;" xml:space="preserve">
<style type="text/css">
	.st0{fill:#D4BEA8;}
	.st1{fill:#272626;}
</style>
<g>
	<path class="st0" d="M3.09,11.64c1.06,0.45,2.97,0.02,3.7-0.87c0.18,1.11-0.14,2.7,1.58,3.14c0.75,0.25,2.47-0.04,3.06,1.05
		c0,0,0.37-1.68,0.74-2.34c0.37-0.66,0.88-1.27,1.02-2.01c0.16-0.85-0.6-1.76-1.33-2.24c1.25,0.11,2.89-0.75,3.28-1.94
		c0.29-0.89,0.26-2.08,1.11-2.45c-1.15,0.15-2.21-0.56-3.3-0.98c-1.08-0.42-2.8-0.02-3.28,1.03C9.37,2.45,8.12,0.77,6.5,0.63
		C5.81,0.57,4.93,0.62,4.61,0C4.6,0.93,3.99,1.73,3.7,2.62C3.28,3.9,4.27,6.36,4.52,6.4c0.25,0.04-2.88,0.44-3.36,1.74
		C0.77,9.18,0.87,10.61,0,11.18C0.94,10.74,2.1,11.22,3.09,11.64"/>
	<path class="st0" d="M-0.19,11.28c0.07-0.03,0.13-0.07,0.19-0.1C-0.07,11.21-0.13,11.24-0.19,11.28"/>
	<path class="st1" d="M8.29,7.98c0.06-0.01,0.12-0.04,0.16-0.08l0.06-0.07c0.04-0.05,0.06-0.11,0.06-0.18c0.01-0.05,0-0.1-0.02-0.14
		C8.54,7.46,8.52,7.42,8.49,7.39C8.46,7.35,8.42,7.32,8.38,7.31C8.34,7.28,8.29,7.27,8.24,7.27l-0.1,0.01
		C8.09,7.29,8.03,7.31,7.98,7.35C7.96,7.38,7.94,7.4,7.92,7.42C7.89,7.48,7.87,7.54,7.86,7.6c-0.01,0.05,0,0.1,0.02,0.14
		c0.01,0.04,0.03,0.08,0.07,0.12C7.98,7.9,8.02,7.93,8.06,7.94C8.1,7.97,8.15,7.98,8.2,7.98C8.23,7.98,8.26,7.98,8.29,7.98"/>
	<path class="st1" d="M9.87,9.31c0.07-0.03,0.12-0.08,0.17-0.15c0.09-0.13,0.1-0.3,0.03-0.44c-0.01-0.01-0.01-0.02-0.02-0.03
		c-0.03-0.07-0.08-0.12-0.14-0.16C9.85,8.48,9.78,8.46,9.7,8.45C9.63,8.45,9.55,8.46,9.49,8.49C9.42,8.53,9.37,8.58,9.33,8.64
		C9.32,8.65,9.31,8.65,9.31,8.66c-0.09,0.13-0.1,0.3-0.03,0.44c0.04,0.07,0.08,0.12,0.15,0.17c0.07,0.04,0.14,0.07,0.22,0.07
		C9.72,9.36,9.8,9.34,9.87,9.31"/>
	<path class="st1" d="M8.44,9.67c0.03-0.45-0.67-0.49-0.7-0.04C7.71,10.07,8.41,10.12,8.44,9.67"/>
	<path class="st1" d="M6.85,7.37c0.03-0.4-0.6-0.45-0.63-0.04C6.2,7.73,6.82,7.77,6.85,7.37"/>
	<path class="st1" d="M8.68,5.4C8.71,5,8.08,4.96,8.05,5.36C8.03,5.77,8.65,5.81,8.68,5.4"/>
	<path class="st1" d="M9.76,7.14c0.05-0.01,0.1-0.03,0.14-0.07c0.02-0.02,0.03-0.04,0.05-0.06c0.03-0.05,0.05-0.1,0.05-0.15
		c0-0.04,0-0.08-0.02-0.12C9.98,6.7,9.96,6.67,9.93,6.64C9.9,6.6,9.87,6.58,9.84,6.57C9.8,6.54,9.76,6.53,9.72,6.53
		c-0.03,0-0.05,0-0.08,0.01c-0.05,0.01-0.1,0.03-0.14,0.07C9.48,6.63,9.46,6.65,9.44,6.67c-0.03,0.05-0.05,0.1-0.05,0.15
		c-0.01,0.04,0,0.08,0.02,0.12c0.01,0.04,0.03,0.07,0.06,0.1c0.03,0.03,0.06,0.05,0.1,0.07C9.6,7.14,9.63,7.15,9.68,7.15
		C9.71,7.15,9.73,7.15,9.76,7.14"/>
	<path class="st1" d="M8.55,6.75C8.59,6.74,8.62,6.72,8.65,6.7c0.01-0.01,0.02-0.03,0.03-0.04C8.7,6.63,8.71,6.6,8.71,6.56
		c0-0.03,0-0.06-0.01-0.08C8.7,6.45,8.68,6.43,8.66,6.41C8.65,6.39,8.63,6.37,8.6,6.36C8.58,6.35,8.55,6.34,8.52,6.34
		c-0.02,0-0.04,0-0.05,0C8.43,6.35,8.4,6.37,8.37,6.39C8.36,6.4,8.35,6.42,8.34,6.43C8.32,6.46,8.31,6.5,8.31,6.53
		c0,0.03,0,0.05,0.01,0.08c0.01,0.03,0.02,0.05,0.04,0.07C8.37,6.7,8.39,6.72,8.42,6.73C8.44,6.74,8.47,6.75,8.5,6.75
		C8.51,6.75,8.53,6.75,8.55,6.75"/>
	<path class="st0" d="M3.09,115.93c1.06,0.45,2.97,0.02,3.7-0.87c0.18,1.11-0.14,2.7,1.58,3.14c0.75,0.25,2.47-0.04,3.06,1.04
		c0,0,0.37-1.68,0.74-2.34c0.37-0.66,0.88-1.27,1.02-2.01c0.16-0.85-0.6-1.76-1.33-2.23c1.25,0.11,2.89-0.75,3.28-1.94
		c0.29-0.89,0.26-2.08,1.11-2.45c-1.15,0.15-2.21-0.56-3.3-0.98c-1.08-0.42-2.8-0.02-3.28,1.03c-0.3-1.59-1.55-3.27-3.17-3.41
		c-0.7-0.06-1.57-0.01-1.89-0.63c-0.01,0.93-0.62,1.73-0.91,2.62c-0.42,1.29,0.57,3.75,0.82,3.79c0.25,0.04-2.88,0.44-3.36,1.74
		c-0.39,1.04-0.28,2.47-1.16,3.03C0.94,115.03,2.1,115.51,3.09,115.93"/>
	<path class="st0" d="M-0.19,115.57c0.07-0.03,0.13-0.07,0.19-0.1C-0.07,115.5-0.13,115.53-0.19,115.57"/>
	<path class="st1" d="M8.29,112.27c0.06-0.01,0.12-0.04,0.16-0.08c0.02-0.02,0.04-0.05,0.06-0.07c0.04-0.05,0.06-0.11,0.06-0.18
		c0.01-0.05,0-0.1-0.02-0.14c-0.01-0.04-0.03-0.08-0.07-0.12c-0.03-0.04-0.07-0.06-0.11-0.08c-0.04-0.03-0.09-0.04-0.14-0.04
		l-0.1,0.01c-0.06,0.01-0.12,0.04-0.16,0.08c-0.02,0.02-0.04,0.05-0.06,0.07c-0.04,0.05-0.06,0.11-0.06,0.18
		c-0.01,0.05,0,0.1,0.02,0.14c0.01,0.04,0.03,0.08,0.07,0.12c0.03,0.04,0.07,0.06,0.11,0.08c0.04,0.02,0.09,0.04,0.14,0.04
		C8.23,112.27,8.26,112.27,8.29,112.27"/>
	<path class="st1" d="M9.87,113.6c0.07-0.03,0.12-0.08,0.17-0.15c0.09-0.13,0.1-0.3,0.03-0.44c-0.01-0.01-0.01-0.02-0.02-0.03
		c-0.03-0.07-0.08-0.12-0.14-0.16c-0.06-0.04-0.13-0.07-0.21-0.07c-0.08-0.01-0.15,0.01-0.22,0.04c-0.07,0.03-0.12,0.08-0.16,0.14
		c-0.01,0.01-0.01,0.02-0.02,0.03c-0.09,0.13-0.1,0.3-0.03,0.44c0.04,0.07,0.08,0.12,0.15,0.17c0.07,0.04,0.14,0.07,0.22,0.07
		C9.72,113.65,9.8,113.63,9.87,113.6"/>
	<path class="st1" d="M8.44,113.96c0.03-0.45-0.67-0.49-0.7-0.04C7.71,114.36,8.41,114.41,8.44,113.96"/>
	<path class="st1" d="M6.85,111.66c0.03-0.4-0.6-0.45-0.63-0.04C6.2,112.03,6.82,112.07,6.85,111.66"/>
	<path class="st1" d="M8.68,109.7c0.03-0.4-0.6-0.45-0.63-0.04C8.03,110.06,8.65,110.1,8.68,109.7"/>
	<path class="st1" d="M9.76,111.44c0.05-0.01,0.1-0.03,0.14-0.07c0.02-0.02,0.03-0.04,0.05-0.06c0.03-0.05,0.05-0.1,0.05-0.15
		c0-0.04,0-0.08-0.02-0.12c-0.01-0.04-0.03-0.07-0.06-0.1c-0.03-0.03-0.06-0.06-0.09-0.07c-0.04-0.02-0.07-0.03-0.12-0.03
		c-0.03,0-0.05,0-0.08,0.01c-0.05,0.01-0.1,0.04-0.14,0.07c-0.02,0.02-0.03,0.04-0.05,0.06c-0.03,0.05-0.05,0.1-0.05,0.15
		c-0.01,0.04,0,0.08,0.02,0.12c0.01,0.04,0.03,0.07,0.06,0.1c0.03,0.03,0.06,0.06,0.1,0.07c0.04,0.02,0.07,0.03,0.12,0.03
		C9.71,111.44,9.73,111.44,9.76,111.44"/>
	<path class="st1" d="M8.55,111.04c0.03-0.01,0.07-0.02,0.09-0.05l0.03-0.04c0.02-0.03,0.03-0.06,0.03-0.1c0-0.03,0-0.05-0.01-0.08
		c-0.01-0.03-0.02-0.05-0.04-0.07c-0.02-0.02-0.04-0.04-0.06-0.05c-0.02-0.02-0.05-0.02-0.08-0.02c-0.02,0-0.04,0-0.05,0
		c-0.04,0.01-0.07,0.02-0.09,0.05c-0.01,0.01-0.02,0.03-0.04,0.04c-0.02,0.03-0.03,0.06-0.03,0.1c0,0.03,0,0.06,0.01,0.08
		c0.01,0.03,0.02,0.05,0.04,0.07c0.02,0.02,0.04,0.04,0.06,0.05c0.02,0.01,0.05,0.02,0.08,0.02C8.51,111.04,8.53,111.04,8.55,111.04
		"/>
	<path class="st0" d="M0.09,220.22c1.06,0.45,2.97,0.02,3.7-0.87c0.18,1.11-0.14,2.7,1.58,3.14c0.75,0.25,2.47-0.04,3.06,1.05
		c0,0,0.37-1.68,0.74-2.34c0.37-0.66,0.88-1.27,1.02-2.01c0.16-0.85-0.6-1.76-1.33-2.24c1.25,0.11,2.89-0.75,3.28-1.94
		c0.29-0.89,0.26-2.08,1.11-2.45c-1.15,0.15-2.21-0.56-3.3-0.98c-1.08-0.42-2.8-0.02-3.28,1.03c-0.3-1.59-1.55-3.27-3.17-3.41
		c-0.7-0.06-1.57-0.01-1.89-0.63c-0.01,0.93-0.62,1.73-0.91,2.62c-0.42,1.29,0.57,3.75,0.82,3.79c0.25,0.04-2.88,0.44-3.36,1.74
		c-0.39,1.04-0.28,2.47-1.16,3.03C-2.06,219.32-0.9,219.81,0.09,220.22"/>
	<path class="st0" d="M-3.19,219.87c0.07-0.03,0.13-0.07,0.19-0.1C-3.07,219.79-3.13,219.83-3.19,219.87"/>
	<path class="st1" d="M5.29,216.56c0.06-0.01,0.12-0.04,0.16-0.08l0.06-0.07c0.04-0.05,0.06-0.11,0.06-0.18
		c0.01-0.05,0-0.1-0.02-0.14c-0.01-0.04-0.03-0.08-0.07-0.12c-0.03-0.04-0.07-0.06-0.11-0.08c-0.04-0.02-0.09-0.04-0.14-0.04
		l-0.1,0.01c-0.06,0.01-0.12,0.04-0.16,0.08c-0.02,0.02-0.04,0.05-0.06,0.07c-0.04,0.05-0.06,0.11-0.06,0.18
		c-0.01,0.05,0,0.1,0.02,0.14c0.01,0.04,0.03,0.08,0.07,0.12c0.03,0.04,0.07,0.06,0.11,0.08c0.04,0.03,0.09,0.04,0.14,0.04
		C5.23,216.56,5.26,216.56,5.29,216.56"/>
	<path class="st1" d="M6.87,217.89c0.07-0.03,0.12-0.08,0.17-0.15c0.09-0.13,0.1-0.3,0.03-0.44c-0.01-0.01-0.01-0.02-0.02-0.03
		c-0.03-0.07-0.08-0.12-0.14-0.16c-0.06-0.04-0.13-0.07-0.21-0.07c-0.08-0.01-0.15,0.01-0.22,0.04c-0.07,0.03-0.12,0.08-0.16,0.14
		c-0.01,0.01-0.01,0.02-0.02,0.03c-0.09,0.13-0.1,0.3-0.03,0.44c0.04,0.07,0.08,0.12,0.15,0.17c0.07,0.04,0.14,0.07,0.22,0.07
		C6.72,217.94,6.8,217.92,6.87,217.89"/>
	<path class="st1" d="M5.44,218.25c0.03-0.45-0.67-0.49-0.7-0.05C4.71,218.66,5.41,218.7,5.44,218.25"/>
	<path class="st1" d="M3.85,215.95c0.03-0.4-0.6-0.45-0.63-0.04C3.2,216.32,3.82,216.36,3.85,215.95"/>
	<path class="st1" d="M5.68,213.99c0.03-0.4-0.6-0.45-0.63-0.04C5.03,214.35,5.65,214.39,5.68,213.99"/>
	<path class="st1" d="M6.76,215.73c0.05-0.01,0.1-0.03,0.14-0.07c0.02-0.02,0.03-0.04,0.05-0.06c0.03-0.05,0.05-0.1,0.05-0.15
		c0-0.04,0-0.08-0.02-0.12c-0.01-0.04-0.03-0.07-0.06-0.1c-0.03-0.03-0.06-0.06-0.09-0.07c-0.04-0.02-0.07-0.03-0.12-0.03
		c-0.03,0-0.05,0-0.08,0.01c-0.05,0.01-0.1,0.03-0.14,0.07c-0.02,0.02-0.03,0.04-0.05,0.06c-0.03,0.05-0.05,0.1-0.05,0.15
		c-0.01,0.04,0,0.08,0.02,0.12c0.01,0.04,0.03,0.07,0.06,0.1c0.03,0.03,0.06,0.05,0.1,0.07c0.04,0.02,0.07,0.03,0.12,0.03
		C6.71,215.73,6.73,215.73,6.76,215.73"/>
	<path class="st1" d="M5.55,215.33c0.03-0.01,0.07-0.02,0.09-0.05c0.01-0.01,0.02-0.03,0.03-0.04c0.02-0.03,0.03-0.06,0.03-0.1
		c0-0.03,0-0.06-0.01-0.08c-0.01-0.03-0.02-0.05-0.04-0.07c-0.02-0.02-0.04-0.04-0.06-0.05c-0.02-0.01-0.05-0.02-0.08-0.02
		c-0.02,0-0.04,0-0.05,0c-0.04,0.01-0.07,0.02-0.09,0.05c-0.01,0.01-0.02,0.03-0.04,0.04c-0.02,0.03-0.03,0.06-0.03,0.1
		c0,0.03,0,0.05,0.01,0.08c0.01,0.03,0.02,0.05,0.04,0.07c0.02,0.02,0.04,0.04,0.06,0.05c0.02,0.01,0.05,0.02,0.08,0.02
		C5.51,215.33,5.53,215.33,5.55,215.33"/>
</g>
</svg>
